<!-- Nea Onnim: "He who does not know" — Symbol of knowledge and lifelong learning -->
<svg xmlns="http://www.w3.org/2000/svg" viewBox="0 0 64 64" fill="currentColor">
  <path d="M32 4C16.536 4 4 16.536 4 32s12.536 28 28 28 28-12.536 28-28S47.464 4 32 4zm0 4c13.255 0 24 10.745 24 24S45.255 56 32 56 8 45.255 8 32 18.745 8 32 8z" opacity="0.15"/>
  <path d="M32 14c-2.2 0-4 1.8-4 4v8c0 1.1-.9 2-2 2h-8c-2.2 0-4 1.8-4 4s1.8 4 4 4h8c1.1 0 2 .9 2 2v8c0 2.2 1.8 4 4 4s4-1.8 4-4v-8c0-1.1.9-2 2-2h8c2.2 0 4-1.8 4-4s-1.8-4-4-4h-8c-1.1 0-2-.9-2-2v-8c0-2.2-1.8-4-4-4z"/>
</svg>
