<!-- Sankofa: "Go back and get it" — Learn from the past -->
<svg xmlns="http://www.w3.org/2000/svg" viewBox="0 0 64 64" fill="currentColor">
  <path d="M32 4C16.536 4 4 16.536 4 32s12.536 28 28 28 28-12.536 28-28S47.464 4 32 4zm0 4c13.255 0 24 10.745 24 24S45.255 56 32 56 8 45.255 8 32 18.745 8 32 8z" opacity="0.15"/>
  <path d="M38 18c-2 0-4 1-5 3l-1 2c-1 2-1 4 0 6l4 8c1 2 1 4-1 5-1 1-3 1-4 0l-6-6c-2-2-4-2-6 0s-2 4 0 6l8 8c4 4 10 4 14 0s4-10 0-14l-4-4c-1-1-1-3 0-4l3-3c2-2 2-4 0-6-1-1-3-2-5-2z"/>
  <circle cx="36" cy="22" r="3"/>
</svg>
